<?xml version="1.0" encoding="UTF-8" standalone="no"?>
<!DOCTYPE svg PUBLIC "-//W3C//DTD SVG 1.1//EN" "http://www.w3.org/Graphics/SVG/1.1/DTD/svg11.dtd">
<svg width="100%" height="100%" viewBox="0 0 304 300" version="1.1" xmlns="http://www.w3.org/2000/svg" xmlns:xlink="http://www.w3.org/1999/xlink" xml:space="preserve" xmlns:serif="http://www.serif.com/" style="fill-rule:evenodd;clip-rule:evenodd;stroke-linejoin:round;stroke-miterlimit:2;">
    <g id="Circle-Icons" serif:id="Circle Icons" transform="matrix(1.01108,0,0,1,0,0)">
        <rect x="0" y="0" width="300" height="300" style="fill:none;"/>
        <g id="pause" transform="matrix(3.09874,0,0,3.13308,-25.554,260.53)">
            <g transform="matrix(0.319174,0,0,0.319174,8.73997,-83.1544)">
                <path d="M150.077,300C232.382,300 299.999,232.381 299.999,150.076C299.999,67.619 232.382,0 149.924,0C67.619,0 0.001,67.619 0.001,150.076C0.001,232.381 67.619,300 150.077,300ZM150.077,288.373C73.586,288.373 11.628,226.415 11.628,150.076C11.628,73.738 73.586,11.627 149.924,11.627C226.415,11.627 288.372,73.738 288.372,150.076C288.372,226.415 226.415,288.373 150.077,288.373Z" style="fill-rule:nonzero;"/>
            </g>
            <g transform="matrix(0.319174,0,0,0.319174,-26.8527,-83.1544)">
                <path d="M227.323,220.829L227.369,220.829L227.323,220.829ZM227.323,80.421C230.582,80.421 233.303,82.891 233.303,85.944C233.303,85.944 233.303,214.056 233.303,214.056C233.303,217.109 230.582,219.579 227.323,219.579C224.063,219.579 221.342,217.109 221.342,214.056L221.342,85.944C221.342,82.891 224.063,80.421 227.323,80.421ZM227.508,220.827L227.462,220.828C227.925,220.819 228.377,220.769 228.816,220.682L228.86,220.673C228.423,220.763 227.97,220.816 227.508,220.827ZM228.947,220.654L228.904,220.664C229.195,220.602 229.479,220.523 229.757,220.429L229.798,220.415C229.522,220.511 229.238,220.591 228.947,220.654ZM229.922,220.371L229.881,220.386C230.004,220.342 230.126,220.294 230.247,220.244L230.287,220.227C230.167,220.278 230.045,220.326 229.922,220.371ZM230.406,220.175C232.162,219.39 233.537,217.959 234.171,216.219L234.156,216.258C233.511,217.993 232.128,219.417 230.367,220.192L230.406,220.175ZM234.226,216.061C234.253,215.981 234.278,215.902 234.301,215.821L234.289,215.861C234.265,215.942 234.24,216.021 234.213,216.1L234.226,216.061ZM234.324,215.74C234.474,215.201 234.553,214.637 234.553,214.056C234.553,214.056 234.553,85.944 234.553,85.944C234.553,82.432 231.637,79.507 227.967,79.198L228.012,79.202C231.661,79.532 234.553,82.446 234.553,85.944C234.553,85.944 234.553,214.056 234.553,214.056C234.553,214.651 234.47,215.23 234.313,215.781L234.324,215.74ZM227.83,79.188C227.693,79.179 227.555,79.173 227.415,79.171L227.462,79.172C227.601,79.175 227.739,79.181 227.876,79.191L227.83,79.188Z" style="fill-rule:nonzero;"/>
            </g>
            <g transform="matrix(0.319174,0,0,0.319174,-26.8527,-83.1544)">
                <path d="M295.707,80.421C298.966,80.421 301.688,82.891 301.688,85.944L301.688,214.056C301.688,217.109 298.966,219.579 295.707,219.579C292.447,219.579 289.726,217.109 289.726,214.056C289.726,214.056 289.726,85.944 289.726,85.944C289.726,82.891 292.447,80.421 295.707,80.421ZM301.165,81.522C301.278,81.644 301.387,81.77 301.491,81.9C301.378,81.759 301.26,81.623 301.137,81.491L301.165,81.522ZM301.079,81.43L301.108,81.46C301.06,81.41 301.011,81.36 300.961,81.31L300.931,81.281C300.981,81.33 301.03,81.38 301.079,81.43ZM300.871,81.222C300.82,81.173 300.769,81.126 300.717,81.078L300.748,81.107C300.8,81.154 300.851,81.203 300.901,81.251L300.871,81.222ZM300.395,80.804C300.34,80.76 300.284,80.717 300.228,80.674L300.262,80.7C300.318,80.743 300.373,80.787 300.428,80.831L300.395,80.804ZM300.16,80.623C300.091,80.573 300.022,80.523 299.952,80.475L299.987,80.499C300.057,80.548 300.126,80.598 300.194,80.649L300.16,80.623Z" style="fill-rule:nonzero;"/>
            </g>
        </g>
    </g>
</svg>
