<?xml version="1.0" encoding="UTF-8" standalone="no"?>
<!DOCTYPE svg PUBLIC "-//W3C//DTD SVG 1.1//EN" "http://www.w3.org/Graphics/SVG/1.1/DTD/svg11.dtd">
<svg width="100%" height="100%" viewBox="0 0 304 300" version="1.1" xmlns="http://www.w3.org/2000/svg" xmlns:xlink="http://www.w3.org/1999/xlink" xml:space="preserve" xmlns:serif="http://www.serif.com/" style="fill-rule:evenodd;clip-rule:evenodd;stroke-linejoin:round;stroke-miterlimit:2;">
    <g id="Circle-Icons" serif:id="Circle Icons" transform="matrix(1.01108,0,0,1,0,0)">
        <rect x="0" y="0" width="300" height="300" style="fill:none;"/>
        <g id="play" transform="matrix(3.09874,0,0,3.13308,-25.554,260.53)">
            <g transform="matrix(0.319174,0,0,0.319174,8.73997,-83.1544)">
                <path d="M150.077,300C232.382,300 299.999,232.381 299.999,150.076C299.999,67.619 232.382,0 149.924,0C67.619,0 0.001,67.619 0.001,150.076C0.001,232.381 67.619,300 150.077,300ZM150.077,288.373C73.586,288.373 11.628,226.415 11.628,150.076C11.628,73.738 73.586,11.627 149.924,11.627C226.415,11.627 288.372,73.738 288.372,150.076C288.372,226.415 226.415,288.373 150.077,288.373Z" style="fill-rule:nonzero;"/>
            </g>
            <g transform="matrix(0.319174,0,0,0.319174,6.19904,-75.1376)">
                <path d="M226.74,108.698C232.293,112.294 235.557,118.505 235.557,125.04C235.557,131.57 232.288,137.443 226.74,141.037C226.74,141.037 131.211,200.57 131.211,200.57C127.941,202.53 124.673,203.518 121.076,203.518C117.816,203.518 114.881,202.871 111.948,201.243C105.743,197.647 102.143,191.445 102.143,184.584L102.143,65.15C102.143,57.974 105.719,51.77 111.916,48.508C118.128,45.239 125.321,45.567 131.207,49.162L226.74,108.698ZM220.345,130.859C220.346,130.859 220.346,130.859 220.347,130.858C223.616,128.815 223.994,125.909 223.652,124.526C223.617,123.231 223.14,120.522 220.405,118.569C220.386,118.555 220.366,118.541 220.345,118.529C220.345,118.529 126.074,59.78 124.81,58.992C123.567,58.168 122.319,57.772 121.076,57.772C119.503,57.772 118.315,58.162 117.509,58.556C116.227,59.029 113.699,61.076 113.699,64.804L113.699,184.238C113.699,187.91 116.101,189.569 117.325,190.385C118.57,191.215 121.477,192.479 124.799,190.403C124.798,190.404 220.345,130.859 220.345,130.859Z" style="fill-rule:nonzero;"/>
            </g>
        </g>
    </g>
</svg>
