<?xml version="1.0" encoding="UTF-8" standalone="no"?>
<!DOCTYPE svg PUBLIC "-//W3C//DTD SVG 1.1//EN" "http://www.w3.org/Graphics/SVG/1.1/DTD/svg11.dtd">
<svg width="100%" height="100%" viewBox="0 0 304 300" version="1.1" xmlns="http://www.w3.org/2000/svg" xmlns:xlink="http://www.w3.org/1999/xlink" xml:space="preserve" xmlns:serif="http://www.serif.com/" style="fill-rule:evenodd;clip-rule:evenodd;stroke-linejoin:round;stroke-miterlimit:2;">
    <g id="Circle-Icons" serif:id="Circle Icons" transform="matrix(1.01108,0,0,1,0,0)">
        <rect x="0" y="0" width="300" height="300" style="fill:none;"/>
        <g id="Forward-15" serif:id="Forward 15">
            <g transform="matrix(-0.989038,0,0,1,300.002,0)">
                <path d="M163.894,283.816C137.504,283.816 111.076,275.96 88.182,260.038C85.837,258.392 85.251,255.169 86.886,252.814C88.521,250.471 91.75,249.877 94.102,251.52C94.103,251.52 94.105,251.521 94.106,251.522C140.569,283.87 202.984,280.081 245.879,242.289C245.879,242.289 245.879,242.289 245.879,242.289C297.086,197.168 302.407,119.018 257.746,68.1C236.241,43.564 206.418,28.907 173.774,26.807C140.761,24.67 108.863,35.606 83.916,57.601C83.916,57.601 83.916,57.601 83.916,57.602C68.665,71.056 56.837,88.17 49.704,107.066C49.703,107.068 49.702,107.07 49.701,107.073C48.696,109.752 45.695,111.093 43.014,110.091C40.334,109.075 38.989,106.082 39.993,103.4C47.716,82.922 60.536,64.393 77.079,49.812C104.105,26.01 138.75,14.176 174.446,16.463C209.856,18.736 242.206,34.647 265.55,61.264C265.55,61.264 265.55,61.264 265.55,61.264C313.975,116.473 308.225,201.178 252.742,250.077C227.353,272.443 195.656,283.816 163.894,283.816Z" style="fill-rule:nonzero;"/>
            </g>
            <g transform="matrix(-0.989038,0,0,1,300.002,0)">
                <path d="M42.028,117.753C40.126,117.753 38.297,116.705 37.377,114.892L5.457,51.218C4.172,48.656 5.209,45.535 7.763,44.25C7.764,44.249 7.765,44.248 7.766,44.248C10.328,42.955 13.428,44.006 14.73,46.574C14.73,46.574 42.943,102.82 42.943,102.82C43.717,104.363 45.594,104.986 47.137,104.213L103.391,75.996C105.954,74.71 109.067,75.755 110.361,78.319C111.654,80.88 110.598,83.988 108.037,85.281L44.339,117.207C43.601,117.58 42.814,117.753 42.028,117.753Z" style="fill-rule:nonzero;"/>
            </g>
            <g transform="matrix(2.22831,0,0,2.253,-181.241,-120.651)">
                <text x="126.778px" y="136.429px" style="font-family:'Gibson-Regular', 'Gibson';font-size:48.084px;">5</text>
            </g>
        </g>
    </g>
</svg>
